<svg width="18" height="18" viewBox="0 0 18 18" fill="none" xmlns="http://www.w3.org/2000/svg">
<path d="M12 12.75C13.0375 12.75 13.9219 12.3844 14.6531 11.6531C15.3844 10.9219 15.75 10.0375 15.75 9C15.75 7.9625 15.3844 7.07813 14.6531 6.34688C13.9219 5.61563 13.0375 5.25 12 5.25C11.6625 5.25 11.3344 5.29375 11.0156 5.38125C10.6969 5.46875 10.4 5.59375 10.125 5.75625C10.4875 6.20625 10.7656 6.70625 10.9594 7.25625C11.1531 7.80625 11.25 8.3875 11.25 9C11.25 9.6125 11.1531 10.1938 10.9594 10.7438C10.7656 11.2938 10.4875 11.7938 10.125 12.2438C10.4 12.4063 10.6969 12.5313 11.0156 12.6188C11.3344 12.7063 11.6625 12.75 12 12.75ZM9 11.25C9.2375 10.9375 9.42188 10.5906 9.55313 10.2094C9.68438 9.82813 9.75 9.425 9.75 9C9.75 8.575 9.68438 8.17188 9.55313 7.79063C9.42188 7.40938 9.2375 7.0625 9 6.75C8.7625 7.0625 8.57813 7.40938 8.44688 7.79063C8.31563 8.17188 8.25 8.575 8.25 9C8.25 9.425 8.31563 9.82813 8.44688 10.2094C8.57813 10.5906 8.7625 10.9375 9 11.25ZM6 12.75C6.3375 12.75 6.66563 12.7063 6.98438 12.6188C7.30313 12.5313 7.6 12.4063 7.875 12.2438C7.5125 11.7938 7.23438 11.2938 7.04063 10.7438C6.84688 10.1938 6.75 9.6125 6.75 9C6.75 8.3875 6.84688 7.80625 7.04063 7.25625C7.23438 6.70625 7.5125 6.20625 7.875 5.75625C7.6 5.59375 7.30313 5.46875 6.98438 5.38125C6.66563 5.29375 6.3375 5.25 6 5.25C4.9625 5.25 4.07813 5.61563 3.34688 6.34688C2.61563 7.07813 2.25 7.9625 2.25 9C2.25 10.0375 2.61563 10.9219 3.34688 11.6531C4.07813 12.3844 4.9625 12.75 6 12.75ZM6 14.25C4.5375 14.25 3.29688 13.7406 2.27813 12.7219C1.25938 11.7031 0.75 10.4625 0.75 9C0.75 7.5375 1.25938 6.29688 2.27813 5.27813C3.29688 4.25938 4.5375 3.75 6 3.75C6.5625 3.75 7.09688 3.83125 7.60313 3.99375C8.10938 4.15625 8.575 4.3875 9 4.6875C9.425 4.3875 9.89063 4.15625 10.3969 3.99375C10.9031 3.83125 11.4375 3.75 12 3.75C13.4625 3.75 14.7031 4.25938 15.7219 5.27813C16.7406 6.29688 17.25 7.5375 17.25 9C17.25 10.4625 16.7406 11.7031 15.7219 12.7219C14.7031 13.7406 13.4625 14.25 12 14.25C11.4375 14.25 10.9031 14.1688 10.3969 14.0063C9.89063 13.8438 9.425 13.6125 9 13.3125C8.575 13.6125 8.10938 13.8438 7.60313 14.0063C7.09688 14.1688 6.5625 14.25 6 14.25Z" fill="#666464"/>
</svg>
