<svg width="56" height="32" viewBox="0 0 56 32" fill="none" xmlns="http://www.w3.org/2000/svg">
<path d="M0 4C0 1.79086 1.79086 0 4 0H52C54.2091 0 56 1.79086 56 4V28C56 30.2091 54.2091 32 52 32H4C1.79086 32 0 30.2091 0 28V4Z" fill="white"/>
<path d="M22.4518 13.3234H20.0169C19.8504 13.3234 19.7086 13.4404 19.6826 13.5996L18.6978 19.6369C18.6806 19.744 18.7563 19.8443 18.867 19.8611C18.8774 19.8627 18.888 19.8635 18.8987 19.8635H20.0611C20.2279 19.8635 20.3696 19.7462 20.3955 19.587L20.6612 17.9586C20.6869 17.7996 20.8286 17.6823 20.9952 17.6821H21.766C23.37 17.6821 24.2956 16.9317 24.5374 15.4444C24.6464 14.7937 24.542 14.2824 24.227 13.9244C23.8808 13.5313 23.267 13.3232 22.4522 13.3232L22.4518 13.3234ZM22.7327 15.5285C22.5996 16.3732 21.9319 16.3732 21.2864 16.3732H20.919L21.1767 14.7956C21.1924 14.7002 21.2773 14.6299 21.3771 14.6299H21.5454C21.9851 14.6299 22.3999 14.6299 22.6142 14.8723C22.742 15.0169 22.7811 15.2317 22.7323 15.5285H22.7327ZM29.7303 15.5012H28.5643C28.4645 15.5012 28.3794 15.5715 28.3639 15.6669L28.3124 15.9822L28.2308 15.8679C27.9784 15.5137 27.4155 15.3953 26.8536 15.3953C25.5651 15.3953 24.4645 16.339 24.2502 17.6627C24.1388 18.3229 24.2972 18.9544 24.6846 19.3947C25.0399 19.7995 25.5484 19.9682 26.1532 19.9682C27.1915 19.9682 27.7671 19.3228 27.7671 19.3228L27.7151 19.6361C27.6973 19.7431 27.7729 19.8438 27.8834 19.8608C27.894 19.8625 27.9046 19.8632 27.9151 19.8632H28.9654C29.1321 19.8632 29.2739 19.7459 29.2998 19.5867L29.9299 15.7278C29.9477 15.6213 29.8725 15.5208 29.7623 15.5038C29.7517 15.5021 29.741 15.5012 29.7303 15.5012ZM28.1049 17.6956C27.9924 18.3396 27.4637 18.7721 26.7893 18.7721C26.4508 18.7721 26.1801 18.667 26.0064 18.468C25.834 18.2703 25.7685 17.9891 25.8234 17.6758C25.9285 17.0372 26.4661 16.5907 27.13 16.5907C27.4612 16.5907 27.7303 16.6971 27.9076 16.8978C28.0852 17.1005 28.1557 17.3835 28.1048 17.6954L28.1049 17.6956ZM35.9403 15.5012H34.7685C34.6564 15.5014 34.5514 15.5552 34.4884 15.6448L32.8724 17.9465L32.1873 15.7346C32.1442 15.5961 32.0123 15.5012 31.8627 15.5012H30.7111C30.599 15.5009 30.508 15.5886 30.5076 15.697C30.5076 15.7188 30.5113 15.7403 30.5185 15.7609L31.8091 19.4231L30.5958 21.0793C30.5309 21.1676 30.5523 21.2902 30.6437 21.3528C30.678 21.3765 30.7192 21.3891 30.7613 21.3891H31.9317C32.0426 21.3891 32.1465 21.3368 32.2097 21.2487L36.1068 15.8092C36.1708 15.7202 36.1479 15.5979 36.0558 15.5361C36.0218 15.5133 35.9815 15.5011 35.9401 15.5011L35.9403 15.5012Z" fill="#253B80"/>
<path d="M39.8195 13.3236H37.3842C37.2178 13.3236 37.0761 13.4407 37.0502 13.5997L36.0655 19.6371C36.048 19.744 36.1234 19.8443 36.2338 19.8611C36.2444 19.8627 36.2549 19.8635 36.2655 19.8635H37.5152C37.6318 19.8635 37.7307 19.7813 37.7489 19.6701L38.0283 17.9588C38.054 17.7998 38.1957 17.6825 38.3623 17.6823H39.1328C40.7372 17.6823 41.6624 16.9318 41.9045 15.4445C42.0138 14.7939 41.9087 14.2826 41.5937 13.9246C41.2481 13.5315 40.6345 13.3234 39.8196 13.3234L39.8195 13.3236ZM40.1003 15.5286C39.9676 16.3734 39.2999 16.3734 38.6541 16.3734H38.287L38.5451 14.7957C38.5604 14.7004 38.6453 14.6301 38.7451 14.6301H38.9134C39.3527 14.6301 39.7679 14.6301 39.9822 14.8725C40.11 15.017 40.1487 15.2319 40.1 15.5286H40.1003ZM47.0975 15.5014H45.9323C45.8325 15.5011 45.7474 15.5715 45.7323 15.6671L45.6807 15.9824L45.5988 15.8681C45.3463 15.5138 44.7838 15.3955 44.222 15.3955C42.9335 15.3955 41.8334 16.3392 41.6189 17.6629C41.5078 18.3231 41.6656 18.9546 42.0529 19.3948C42.4089 19.7997 42.9167 19.9684 43.5215 19.9684C44.5598 19.9684 45.1354 19.323 45.1354 19.323L45.0835 19.6362C45.0657 19.7433 45.1412 19.8439 45.2518 19.861C45.2625 19.8627 45.2734 19.8635 45.2842 19.8633H46.3341C46.5007 19.8633 46.6422 19.746 46.6681 19.5869L47.2986 15.728C47.3157 15.6207 47.2396 15.5203 47.1287 15.5038C47.1183 15.5023 47.1079 15.5014 47.0975 15.5016V15.5014ZM45.4722 17.6957C45.3604 18.3398 44.831 18.7722 44.1566 18.7722C43.8187 18.7722 43.5474 18.6672 43.3736 18.4682C43.2013 18.2705 43.1365 17.9892 43.1907 17.676C43.2965 17.0374 43.8334 16.5908 44.4973 16.5908C44.8285 16.5908 45.0976 16.6972 45.2749 16.898C45.4532 17.1007 45.5236 17.3837 45.4721 17.6956L45.4722 17.6957ZM48.4721 13.4892L47.4728 19.6371C47.4553 19.744 47.5307 19.8443 47.6411 19.8611C47.6516 19.8627 47.6622 19.8635 47.6728 19.8635H48.6774C48.8443 19.8635 48.9861 19.7464 49.0118 19.587L49.9973 13.55C50.0147 13.4429 49.9392 13.3425 49.8284 13.3256C49.818 13.3241 49.8076 13.3232 49.7971 13.3232H48.672C48.5721 13.3236 48.4874 13.3939 48.472 13.4892H48.4721Z" fill="#179BD7"/>
<path d="M8.5858 21.0366L8.77208 19.8929L8.35726 19.8835H6.37663L7.75298 11.4448C7.76143 11.3915 7.80897 11.3522 7.86478 11.3525H11.2045C12.3132 11.3525 13.0782 11.5756 13.4778 12.016C13.6651 12.2225 13.7843 12.4384 13.842 12.6759C13.9026 12.9251 13.9037 13.2229 13.8445 13.5862L13.8403 13.6128V13.8455L14.0276 13.9482C14.1706 14.0181 14.2991 14.113 14.4069 14.2277C14.5671 14.4042 14.6706 14.6288 14.7145 14.8949C14.7597 15.1687 14.7448 15.4944 14.6706 15.8629C14.5852 16.287 14.447 16.6565 14.2606 16.9587C14.0959 17.2295 13.8746 17.464 13.6109 17.6471C13.3631 17.8172 13.0686 17.9463 12.7358 18.029C12.4132 18.1102 12.0454 18.1513 11.642 18.1513H11.3822C11.1962 18.1513 11.0158 18.2159 10.874 18.3321C10.7325 18.4494 10.6386 18.6113 10.6092 18.7892L10.5897 18.8922L10.2608 20.9079L10.2458 20.982C10.2419 21.0055 10.2351 21.017 10.2252 21.025C10.2155 21.0327 10.2035 21.037 10.191 21.0371H8.58632L8.5858 21.0366Z" fill="#253B80"/>
<path d="M14.2056 13.6396C14.1955 13.7013 14.1843 13.7643 14.1714 13.829C13.7311 16.0155 12.2242 16.7707 10.2998 16.7707H9.31996C9.08455 16.7707 8.8863 16.936 8.84967 17.1604L8.34805 20.2368L8.20596 21.1088C8.1843 21.2411 8.27762 21.3652 8.41443 21.3861C8.42728 21.3882 8.44031 21.389 8.45351 21.389H10.1913C10.3972 21.389 10.572 21.2445 10.6044 21.0482L10.6215 20.9629L10.9486 18.9552L10.9696 18.845C11.0016 18.648 11.1768 18.5035 11.3826 18.5035H11.6425C13.3263 18.5035 14.6443 17.8426 15.0296 15.9298C15.1905 15.1309 15.1072 14.4637 14.6813 13.9944C14.5463 13.8492 14.3852 13.7292 14.2056 13.6398V13.6396Z" fill="#179BD7"/>
<path d="M13.7455 13.4621C13.6048 13.4228 13.4619 13.3921 13.3171 13.3701C13.0314 13.3278 12.7425 13.3073 12.4533 13.3092H9.8357C9.62987 13.3092 9.45468 13.4541 9.42299 13.6507L8.86607 17.061L8.85005 17.1604C8.88597 16.936 9.08564 16.7705 9.32034 16.7707H10.3002C12.2246 16.7707 13.7313 16.015 14.1718 13.829C14.185 13.7643 14.1961 13.7013 14.206 13.6397C14.0897 13.5807 13.9686 13.5314 13.8438 13.492C13.811 13.4815 13.7783 13.4716 13.7452 13.4621H13.7455Z" fill="#222D65"/>
<path d="M9.42306 13.6504C9.4544 13.4536 9.62976 13.3086 9.83577 13.3093H12.4534C12.7635 13.3093 13.0529 13.3288 13.3172 13.3702C13.4959 13.3974 13.6724 13.438 13.8446 13.4918C13.9745 13.5335 14.0953 13.5827 14.2067 13.6394C14.3377 12.8314 14.2057 12.2813 13.7539 11.7831C13.2554 11.2348 12.3564 11 11.2061 11H7.86641C7.63136 11 7.43099 11.1653 7.39472 11.39L6.00358 19.9158C5.97876 20.0671 6.08563 20.2093 6.24216 20.2333C6.25695 20.2355 6.27174 20.2367 6.2867 20.2367H8.3485L8.86614 17.0609L9.42306 13.6506V13.6504Z" fill="#253B80"/>
</svg>
