<svg width="56" height="32" viewBox="0 0 56 32" fill="none" xmlns="http://www.w3.org/2000/svg">
<path d="M0 4C0 1.79086 1.79086 0 4 0H52C54.2091 0 56 1.79086 56 4V28C56 30.2091 54.2091 32 52 32H4C1.79086 32 0 30.2091 0 28V4Z" fill="white"/>
<path d="M12.396 14.4726C12.396 14.1132 12.7554 13.9335 13.2346 13.9335C13.9534 13.9335 14.9118 14.1731 15.6306 14.5924V12.3162C14.8519 12.0167 14.0133 11.837 13.2346 11.837C11.3178 11.837 10 12.8553 10 14.5924C10 17.228 13.594 16.7488 13.594 17.9468C13.594 18.3661 13.2346 18.5458 12.6955 18.5458C11.9168 18.5458 10.8985 18.1864 10.1198 17.7671V20.0433C11.0183 20.4027 11.8569 20.5824 12.6955 20.5824C14.6722 20.5824 15.99 19.624 15.99 17.8869C16.0499 15.0117 12.396 15.5508 12.396 14.4726ZM27.3111 20.4027H29.7072V12.0167H27.3111V20.4027ZM19.1647 10.04L16.8286 10.5192V18.0666C16.8286 19.5042 17.9068 20.5225 19.2845 20.5225C20.0632 20.5225 20.6622 20.4027 20.9617 20.223V18.3062C20.6622 18.426 19.1647 18.8453 19.1647 17.4676V14.0533H20.9617V12.0167H19.1647V10.04ZM24.1963 12.7355L24.1364 12.0167H21.98V20.4027H24.376V14.7122C24.975 13.9934 25.9933 14.1132 26.2928 14.233V12.0167C25.9933 11.8969 24.7953 11.7172 24.1963 12.7355ZM27.3111 11.3578L29.7072 10.8786V8.90186L27.3111 9.38106V11.3578ZM46 16.2097C46 13.7538 44.802 11.837 42.5258 11.837C40.2496 11.837 38.8719 13.7538 38.8719 16.2097C38.8719 19.0849 40.4892 20.5225 42.8253 20.5225C43.9634 20.5225 44.802 20.2829 45.4609 19.8636V18.0067C44.802 18.3661 44.0832 18.5458 43.1248 18.5458C42.1664 18.5458 41.3877 18.1864 41.2679 17.0483H45.9401C46 16.9285 46 16.4493 46 16.2097ZM41.2679 15.3112C41.2679 14.233 41.9268 13.8137 42.5258 13.8137C43.1248 13.8137 43.7238 14.233 43.7238 15.3112H41.2679ZM34.9784 11.837C34.02 11.837 33.4809 12.2563 33.1215 12.6157L33.0616 12.0167H30.9052V23.0982L33.3012 22.6789V19.9834C33.6606 20.223 34.1398 20.5824 34.9784 20.5824C36.7155 20.5824 38.2729 19.2047 38.2729 16.1498C38.213 13.3944 36.6556 11.837 34.9784 11.837ZM34.3794 18.426C33.8403 18.426 33.4809 18.2463 33.2413 17.9468V14.4127C33.4809 14.1132 33.8403 13.9335 34.3794 13.9335C35.2779 13.9335 35.8769 14.8919 35.8769 16.1498C35.8769 17.4676 35.2779 18.426 34.3794 18.426Z" fill="#6974DE"/>
</svg>
